<svg data-v-fde0c5aa="" xmlns="http://www.w3.org/2000/svg" viewBox="0 0 300 300" class="font"><!----><defs data-v-fde0c5aa=""><!----></defs><rect data-v-fde0c5aa="" fill="#257DC8" x="0" y="0" width="300px" height="300px" class="logo-background-square"></rect><defs data-v-fde0c5aa=""><!----></defs><g data-v-fde0c5aa="" id="53f0976d-31b7-4c86-a7b4-a70fd10d8d3e" fill="#21C7D4" transform="matrix(5.939524691204178,0,0,5.939524691204178,37.98056353087711,91.16900668746075)"><path d="M8.08 9.74C8.08 7.81 6.82 5.91 4.33 5.91C1.83 5.91 0.34 7.69 0.34 9.87C0.34 12.50 2.04 13.78 4.19 13.78C6.10 13.78 7.50 12.82 7.94 11.13L5.46 11.13C5.36 11.70 4.93 12.07 4.21 12.07C3.50 12.07 2.95 11.72 2.83 10.47L8.04 10.47C8.06 10.22 8.08 9.97 8.08 9.74ZM4.20 7.62C4.87 7.62 5.31 8.05 5.45 8.93L2.91 8.93C3.08 8.01 3.54 7.62 4.20 7.62ZM14.15 5.91C13.40 5.91 12.67 6.06 12.25 6.37L11.69 7.20L11.69 3.29L9.17 3.29L9.17 13.58L11.69 13.58L11.69 12.61L12.18 13.41C12.56 13.64 13.29 13.78 13.90 13.78C15.82 13.78 17.44 12.33 17.44 9.67C17.44 7.46 16.18 5.91 14.15 5.91ZM13.22 12.07C12.46 12.07 11.69 11.56 11.69 10.07L11.69 9.74C11.69 8.18 12.36 7.62 13.29 7.62C14.17 7.62 14.87 8.40 14.87 9.80C14.87 11.33 14.20 12.07 13.22 12.07ZM26.04 6.10L23.28 6.10L21.76 11.58L20.22 6.10L17.42 6.10L20.51 13.92L20.41 14.13C20.17 14.66 19.77 14.85 19.18 14.85C18.93 14.85 18.70 14.85 18.49 14.83L18.49 16.45C18.86 16.51 19.15 16.52 19.56 16.52C21.34 16.52 22.15 15.95 23.09 13.58ZM29.71 7.73L31.36 7.73L31.36 6.16L29.71 6.16L29.71 4.23L27.19 4.23L27.19 6.16L26.00 6.16L26.00 7.73L27.19 7.73L27.19 10.85C27.19 11.27 27.19 11.62 27.22 12.05C27.30 13.20 27.86 13.78 29.72 13.78C30.25 13.78 30.72 13.73 31.21 13.65L31.21 12.08C30.02 12.14 29.78 11.97 29.72 11.21C29.71 11.02 29.71 10.74 29.71 10.49ZM36.81 5.91C36.33 5.91 35.74 6.12 35.34 6.57L34.80 7.62L34.80 6.10L32.28 6.10L32.28 13.58L34.80 13.58L34.80 10.84C34.80 8.58 35.49 7.88 37.38 8.01L37.38 5.95C37.20 5.92 37.04 5.91 36.81 5.91Z"></path></g><!----><!----></svg>